<svg width="26" height="23" viewBox="0 0 26 23" fill="none" xmlns="http://www.w3.org/2000/svg">
<path d="M20.0472 7.354H6.10929C4.92503 7.354 3.965 8.31403 3.965 9.49829V20.2197C3.965 21.404 4.92503 22.364 6.10929 22.364H20.0472C21.2315 22.364 22.1915 21.404 22.1915 20.2197V9.4983C22.1915 8.31404 21.2315 7.354 20.0472 7.354Z" fill="#EFF3F9"/>
<path d="M16.4153 13.3153C16.9258 13.3153 17.3397 12.9001 17.3397 12.388C17.3397 11.8759 16.9258 11.4607 16.4153 11.4607C15.9047 11.4607 15.4908 11.8759 15.4908 12.388C15.4908 12.9001 15.9047 13.3153 16.4153 13.3153Z" fill="#8B94AF"/>
<path d="M10.2743 13.3153C10.7849 13.3153 11.1988 12.9001 11.1988 12.388C11.1988 11.8759 10.7849 11.4607 10.2743 11.4607C9.76379 11.4607 9.34991 11.8759 9.34991 12.388C9.34991 12.9001 9.76379 13.3153 10.2743 13.3153Z" fill="#8B94AF"/>
<path d="M3.93521 11.6592H1.75617V18.0178H3.93521V11.6592Z" fill="#8B94AF"/>
<path d="M3.93521 17.6867H1.75617V15.3022C1.75617 15.3022 1.89616 15.501 2.35441 15.501H3.93521V17.6867Z" fill="#6E7792"/>
<path d="M22.6876 18.0188H24.8666V11.6601H22.6876V18.0188Z" fill="#8B94AF"/>
<path d="M22.6882 17.6867H24.8673V15.3022C24.8673 15.3022 24.7273 15.501 24.269 15.501C23.8108 15.501 22.6882 15.501 22.6882 15.501V17.6867Z" fill="#6E7792"/>
<path d="M13.3118 3.95146C14.1371 3.95146 14.8061 3.28037 14.8061 2.45253C14.8061 1.6247 14.1371 0.953613 13.3118 0.953613C12.4866 0.953613 11.8175 1.6247 11.8175 2.45253C11.8175 3.28037 12.4866 3.95146 13.3118 3.95146Z" fill="#FF3A65"/>
<path d="M14.3116 3.41086C13.6935 3.95863 12.7492 3.90034 12.2025 3.28037C11.6558 2.6604 11.7145 1.71323 12.3326 1.16479C12.3326 1.16479 12.3537 1.82384 13.047 2.51932C13.7404 3.2148 14.3116 3.41086 14.3116 3.41086Z" fill="#E22F55"/>
<path d="M0.748585 12.2926C0.769055 12.2396 0.796127 12.1886 0.808673 12.1337C0.978374 11.368 1.56936 10.8851 2.34721 10.8818C2.7883 10.8798 3.23005 10.8745 3.67114 10.8838C3.85339 10.8878 3.90885 10.8248 3.91017 10.6427C3.91281 10.0697 3.90489 9.49415 3.95441 8.92452C4.05742 7.73492 5.15289 6.71158 6.3474 6.70032C8.36532 6.68177 10.3839 6.69171 12.4025 6.68972C12.6798 6.68972 12.8187 6.5493 12.8191 6.26846C12.8191 5.78494 12.8079 5.30075 12.8238 4.81789C12.8317 4.57414 12.7657 4.44498 12.5194 4.34828C11.651 4.00716 11.1934 3.20372 11.2595 2.20488C11.311 1.42727 11.9693 0.664229 12.7696 0.454924C13.8307 0.177395 14.9051 0.75696 15.2564 1.79753C15.6024 2.8222 15.1058 3.93695 14.0896 4.34828C13.8459 4.44697 13.7753 4.57083 13.7832 4.81657C13.7991 5.31598 13.7872 5.81673 13.7885 6.31615C13.7891 6.68641 13.7911 6.68906 14.1543 6.68972C16.0989 6.69038 18.0442 6.69634 19.9888 6.68707C20.6076 6.68376 21.1688 6.83014 21.6614 7.20901C22.366 7.75148 22.6843 8.48604 22.7001 9.36234C22.7074 9.78824 22.7087 10.2148 22.6981 10.6407C22.6935 10.8215 22.7503 10.8878 22.9345 10.8838C23.3677 10.8738 23.8008 10.8798 24.234 10.8811C25.1479 10.8844 25.8254 11.5263 25.8353 12.4483C25.8518 14.0055 25.8524 15.5634 25.8353 17.1206C25.8254 18.0373 25.1664 18.6678 24.2571 18.6798C23.8484 18.6851 23.4403 18.6798 23.0316 18.6818C22.7034 18.6831 22.7074 18.6851 22.7014 19.0037C22.6909 19.5521 22.7001 20.1025 22.6539 20.6483C22.5601 21.7571 21.5604 22.746 20.4517 22.8553C20.1843 22.8818 19.9142 22.8977 19.6455 22.8977C15.3145 22.9003 10.9835 22.9003 6.65312 22.899C5.30278 22.899 4.22382 22.0896 3.98611 20.8251C3.8831 20.2767 3.92668 19.6998 3.90753 19.1361C3.89234 18.6831 4.00526 18.6831 3.46314 18.6824C3.07091 18.6818 2.67869 18.687 2.28646 18.6791C1.54559 18.6632 0.96847 18.1757 0.811315 17.4464C0.797448 17.3835 0.770375 17.3232 0.749905 17.2617C0.749905 15.6058 0.749905 13.9492 0.749905 12.2933L0.748585 12.2926ZM13.3032 21.8988C15.5172 21.8988 17.7319 21.8988 19.9459 21.8988C21.0368 21.8988 21.703 21.2318 21.703 20.1383C21.7043 16.5648 21.7037 12.9914 21.703 9.41732C21.703 8.35357 21.0401 7.66736 19.9829 7.66604C15.5297 7.66074 11.0766 7.66074 6.62341 7.66604C5.56294 7.66736 4.90329 8.35357 4.90263 9.41732C4.90197 12.9908 4.90197 16.5642 4.90263 20.1376C4.90263 21.2318 5.56756 21.8975 6.65973 21.8975C8.87376 21.8982 11.0885 21.8975 13.3025 21.8975L13.3032 21.8988ZM3.89565 14.7758H3.89961C3.89961 13.9154 3.89036 13.055 3.90555 12.1953C3.91017 11.9402 3.82565 11.8707 3.58398 11.8813C3.19241 11.8992 2.80018 11.8839 2.40796 11.8866C1.98403 11.8892 1.77405 12.0919 1.77339 12.5218C1.77141 14.0293 1.77339 15.5369 1.77934 17.0444C1.78132 17.4657 1.97347 17.667 2.39013 17.6809C2.80613 17.6948 3.22345 17.6809 3.63944 17.6902C3.84744 17.6948 3.90027 17.5995 3.89829 17.406C3.89102 16.5297 3.89499 15.6528 3.89499 14.7765L3.89565 14.7758ZM22.706 14.7632H22.71C22.71 15.6481 22.712 16.5331 22.708 17.4173C22.7074 17.5783 22.7338 17.6895 22.9279 17.6869C23.3769 17.6809 23.8266 17.6935 24.275 17.675C24.621 17.6604 24.8204 17.4557 24.8224 17.1053C24.8316 15.5567 24.8342 14.0088 24.829 12.4602C24.8276 12.0946 24.6011 11.8912 24.2347 11.8866C23.8345 11.882 23.4344 11.8846 23.0342 11.8853C22.7074 11.8859 22.706 11.8866 22.706 12.2059C22.7054 13.0577 22.706 13.9101 22.706 14.7619V14.7632ZM13.2933 3.49383C13.8809 3.49781 14.3438 3.04409 14.3471 2.46187C14.3504 1.87171 13.9027 1.41203 13.317 1.40607C12.7313 1.40011 12.2717 1.85184 12.2658 2.43935C12.2599 3.03283 12.7049 3.4892 13.2926 3.49317L13.2933 3.49383Z" fill="black"/>
<path d="M10.164 13.9571C9.30951 13.9571 8.6076 13.259 8.61486 12.4158C8.62213 11.568 9.32404 10.8785 10.1772 10.8811C11.0125 10.8838 11.7071 11.5779 11.7137 12.4171C11.721 13.2603 11.0197 13.9571 10.164 13.9571ZM10.1712 12.9609C10.469 12.9569 10.7173 12.7019 10.7087 12.4098C10.6995 12.1124 10.4453 11.8766 10.1448 11.8859C9.85692 11.8945 9.61986 12.1383 9.61986 12.4244C9.61986 12.7185 9.87342 12.9656 10.1712 12.9616V12.9609Z" fill="black"/>
<path d="M16.4502 13.9571C15.5931 13.9604 14.8958 13.2749 14.8918 12.4251C14.8878 11.5932 15.5884 10.8858 16.4198 10.8811C17.2854 10.8758 18.0012 11.5832 17.99 12.4317C17.9788 13.2762 17.2947 13.9538 16.4495 13.9565L16.4502 13.9571ZM16.4376 12.9609C16.7354 12.9623 16.9876 12.7132 16.9857 12.4198C16.9837 12.1337 16.7447 11.8926 16.4561 11.8853C16.1563 11.878 15.9027 12.1164 15.8961 12.4132C15.8895 12.7066 16.1391 12.959 16.4369 12.9609H16.4376Z" fill="black"/>
<path d="M13.315 18.681C12.3424 18.6976 11.4232 18.4764 10.5523 18.0491C10.2261 17.8888 10.1132 17.6285 10.2432 17.3563C10.372 17.0874 10.6553 17.0046 10.9775 17.1549C12.5286 17.8802 14.0783 17.8796 15.6294 17.1563C15.9517 17.0059 16.2363 17.0874 16.363 17.3563C16.4911 17.6292 16.3795 17.8908 16.054 18.0511C15.191 18.4757 14.2791 18.6936 13.315 18.681Z" fill="black"/>
</svg>
