<svg width="56" height="75" viewBox="0 0 56 75" fill="none" xmlns="http://www.w3.org/2000/svg">
<g clip-path="url(#clip0_1609_19357)">
<path d="M28.5959 2.13562L33.556 5.99981L38.9839 4.87276L41.8574 9.38098L49.2441 12.4434V17.842L53.1921 22.5836L51.6818 29.8499L53.8003 34.1649L49.0413 39.3285L48.8721 45.5804L44.3143 47.3902L50.2387 65.3313H41.9883L36.5094 69.8395L30.6026 54.3827L27.0027 55.0831L24.6958 54.2217L20.5451 70.8055L14.2807 65.1204L5.37906 65.9753L11.4231 47.3902L6.97549 44.7222L6.49656 39.087L1.70728 33.6127L4.06679 28.4604L1.70728 22.9073L6.01763 18.4779L6.9244 11.9603L13.2016 9.94451L15.7686 4.39617L22.3012 5.27528L28.5959 2.13562Z" fill="url(#paint0_linear_1609_19357)"/>
<path d="M34.6737 15.0162C39.3944 17.7291 43.387 30.9205 40.1016 37.0743C37.2136 42.4841 23.8851 43.8543 19.1884 41.0995C14.4901 38.3446 13.1778 27.0048 15.1973 22.5835C18.1299 16.1625 26.5846 12.5012 31.8002 15.4992L34.6737 15.0162Z" fill="#FFBB1C"/>
<path d="M33.5819 23.8171C34.5062 24.8122 34.7935 26.3224 34.6323 27.5606C34.4487 28.9726 33.5994 30.28 32.1882 31.1446C31.0691 31.8321 29.5972 32.1058 28.1508 32.1187C28.1396 32.3506 28.0933 33.1475 28.0694 33.2731C28.0359 33.4599 27.9704 33.5597 27.8922 33.6628C27.7373 33.8673 27.4675 33.9993 27.1993 34.075C26.987 34.1361 26.7763 34.1635 26.6262 34.1635C26.6007 34.1635 26.5751 34.1635 26.5512 34.1587C26.3931 34.141 26.2191 34.0669 26.1122 33.9445C26.0036 33.8222 25.9429 33.6692 25.9286 33.4953L25.9174 33.3375C25.8871 33.2023 25.7194 26.3401 25.7514 26.4625C25.7753 25.6397 27.0924 25.4964 27.806 25.643C28.5212 25.7879 28.3408 26.6654 28.3216 27.7425C28.3216 27.7425 28.2881 29.161 28.2226 30.6584C29.1326 30.6229 29.8574 30.3605 30.5343 30.0208C31.9024 29.3365 32.6256 28.2883 32.6256 26.7426C32.6256 25.197 31.1345 23.4661 28.3823 23.4661C25.63 23.4661 24.4503 24.1665 23.1173 25.2775C22.8171 25.5286 22.5857 25.7814 22.3669 25.9473C22.1482 26.1131 21.5671 26.1389 21.4107 25.7492C21.2223 25.2807 21.5735 24.7574 21.7795 24.5046C22.1019 24.1086 22.9018 23.3083 23.7862 22.843C24.7999 22.3101 26.0387 21.7353 27.7645 21.6918C29.3258 21.6516 31.7907 21.7804 33.5659 23.801M27.6096 35.1762C27.4659 35.0635 27.3047 34.9863 27.1419 34.9524C27.086 34.9412 27.0301 34.9347 26.9726 34.9347C26.6645 34.9347 26.3644 35.1054 26.168 35.392C26.0036 35.6303 25.9366 35.9137 25.9797 36.1906C26.0068 36.3661 26.0723 36.5191 26.168 36.6318C26.2766 36.7606 26.4426 36.8588 26.647 36.9167C26.7651 36.9489 26.8864 36.9683 27.0094 36.9683C27.2744 36.9683 27.5122 36.8878 27.6974 36.7364C27.9129 36.5593 28.0295 36.3065 28.0279 36.0264C28.0263 35.6979 27.8698 35.3791 27.6096 35.1762Z" fill="url(#paint1_linear_1609_19357)"/>
<path d="M53.7674 29.7067C53.6222 29.2752 53.6238 28.7342 53.7706 28.2946C54.3837 26.464 55.0318 24.6349 55.6975 22.8574C55.7885 22.6159 55.7725 22.5563 55.5746 22.3631C53.9287 20.7594 52.6707 19.5068 51.4973 18.3025C51.1764 17.974 50.9465 17.5103 50.8955 17.0933C50.6289 14.9213 50.4405 13.1164 50.3032 11.4145C50.2713 11.0217 50.1946 10.9557 49.9009 10.8607C47.8415 10.1925 46.1637 9.61607 44.6183 9.0461C44.1553 8.87544 43.6988 8.50512 43.4242 8.07684C42.3067 6.33151 41.2483 4.56525 40.4532 3.22244C40.3271 3.0083 40.2856 2.97771 40.0046 3.01635C38.1624 3.26914 36.2243 3.49938 34.2431 3.70064C33.8265 3.7425 33.3284 3.62174 32.9484 3.38506C31.3281 2.37715 29.7045 1.33221 28.1208 0.277607C27.9085 0.13592 27.8478 0.13753 27.6259 0.284047C25.9098 1.42076 24.3309 2.43672 22.7967 3.38989C22.4184 3.62496 21.9219 3.74411 21.4989 3.70064C19.4522 3.48811 17.5908 3.26431 15.8092 3.01313C15.4947 2.96966 15.4165 3.00669 15.2536 3.28524C14.1297 5.19318 13.1974 6.71632 12.3162 8.08006C12.0416 8.50351 11.5595 8.88349 11.0582 9.07026C9.31651 9.71912 7.5365 10.3181 5.71657 10.9283C5.47711 11.0088 5.47551 11.0265 5.45955 11.202C5.27436 13.2951 5.0764 15.1998 4.8545 17.0224C4.79862 17.4829 4.56555 17.974 4.24786 18.3025C3.02819 19.5631 1.71113 20.8754 0.220071 22.3148C-0.0209896 22.5466 -0.0433396 22.6384 0.0652175 22.9282C0.711771 24.6397 1.35194 26.4462 1.97135 28.2962C2.11822 28.7358 2.11982 29.2768 1.97454 29.7099C1.38227 31.4777 0.748488 33.2601 0.0907603 35.0087C-0.0465324 35.3725 -0.0209896 35.4981 0.245614 35.7509C1.47646 36.915 2.78234 38.2079 4.23509 39.7036C4.55756 40.0353 4.79383 40.5248 4.85131 40.9804C5.1227 43.1492 5.30629 44.909 5.42921 46.5159C5.46433 46.9715 5.54575 47.0778 5.94167 47.1857C6.63452 47.3757 7.31619 47.6268 7.97551 47.87C8.25649 47.973 8.53746 48.0777 8.82162 48.1775L9.26223 48.3321L8.12398 51.9306C7.41357 54.1783 6.71434 56.3905 6.01191 58.6044C5.2999 60.8488 4.5879 63.0917 3.86471 65.3683L3.12397 67.6997C3.77531 67.6643 4.42346 67.6289 5.06523 67.5935C7.41038 67.4663 9.62622 67.3471 11.874 67.1909C11.9905 67.1829 12.1039 67.1781 12.214 67.1781C13.0266 67.1781 13.6492 67.4051 14.2495 67.909C16.0263 69.4 17.8622 70.8845 19.6374 72.3206C20.1642 72.7473 20.6911 73.174 21.2179 73.6007C21.2769 73.3994 21.336 73.1998 21.3951 72.9985C21.6489 72.1339 21.9107 71.2403 22.1869 70.3644C23.1639 67.2666 24.1633 64.1205 25.1307 61.0791L26.0838 58.0827C26.1125 57.9909 26.1461 57.8992 26.1908 57.7768C26.2147 57.7124 26.2402 57.6383 26.2722 57.5482L26.5116 56.8703L27.0432 57.3517C27.4008 57.6754 27.709 57.8315 27.95 57.8106C28.1655 57.7929 28.3954 57.6351 28.6317 57.3388L29.1825 56.6513L29.6486 58.0666C29.7652 58.4208 29.8705 58.7364 29.9711 59.0536C31.4941 63.8404 33.0171 68.6271 34.5337 73.4155C34.5496 73.4638 34.5624 73.5121 34.5752 73.5604L35.557 72.7618C37.7122 71.01 39.9408 69.1971 42.1423 67.4276C42.4727 67.1619 42.9468 67.1555 43.1352 67.1652C44.5273 67.2344 45.9433 67.3165 47.3115 67.3954C47.9916 67.4341 48.6716 67.4743 49.3517 67.5113C50.2329 67.5596 51.1126 67.6063 52.0241 67.653L52.6132 67.6836L46.475 48.3208L46.9204 48.1678C47.2157 48.0664 47.5078 47.9698 47.7968 47.8732C48.5695 47.6156 49.299 47.3725 50.0158 47.0859C50.0957 47.052 50.2409 46.8637 50.2537 46.7767C50.3734 45.801 50.4772 44.8044 50.5762 43.8415C50.6736 42.9029 50.7725 41.9336 50.8891 40.9788C50.9434 40.5296 51.1812 40.0402 51.5085 39.7036C52.8048 38.3689 54.1282 37.0567 55.4437 35.8024C55.755 35.5062 55.7917 35.3645 55.656 35.0103C55.0494 33.4308 54.4491 31.7466 53.7674 29.7115V29.7067ZM23.1607 56.0315C22.0704 59.4803 20.98 62.9291 19.8881 66.3762C19.8402 66.526 19.7843 66.666 19.7204 66.8271C19.6901 66.9043 19.6566 66.9881 19.6215 67.0798L19.3852 67.6949L18.8743 67.2827C18.4864 66.9704 18.1033 66.6628 17.7217 66.3569C16.7415 65.5712 15.8156 64.8306 14.888 64.0513C14.5241 63.7454 14.1984 63.6407 13.7227 63.6777C12.5189 63.7711 11.3296 63.8259 10.0716 63.8838C9.57194 63.9064 9.06587 63.9305 8.55023 63.9563L7.85898 63.9917L12.3194 49.9228L12.867 50.8148C13.1096 51.2109 13.3475 51.5941 13.5806 51.9708C14.1649 52.9143 14.7156 53.8047 15.2425 54.7192C15.4021 54.9978 15.5027 55.0477 15.8044 55.0075C17.147 54.8239 18.5119 54.6565 19.8322 54.4938L21.0471 54.3441C21.1045 54.3377 21.1604 54.3296 21.2179 54.3216C21.4398 54.291 21.6681 54.2588 21.9155 54.2684C22.404 54.2878 22.7999 54.481 23.0314 54.8142C23.2597 55.1427 23.306 55.5742 23.1607 56.0315ZM47.8798 63.9853L47.1902 63.9515C46.6857 63.9257 46.1892 63.8999 45.7007 63.8726C44.3852 63.8017 43.1432 63.7341 41.8916 63.7067C41.5931 63.7019 41.2115 63.8259 40.9673 64.011C39.9695 64.7678 39.0069 65.5503 37.9868 66.3778C37.6084 66.6854 37.2269 66.9945 36.8373 67.3085L36.2945 67.7464L33.6509 59.403C33.3012 58.3017 32.9516 57.2004 32.6036 56.0991C32.3817 55.4003 32.5621 54.9704 32.7505 54.7337C32.9452 54.4906 33.3396 54.2137 34.1106 54.2878C34.3932 54.3151 34.6758 54.3393 34.9583 54.3618C36.071 54.4568 37.2237 54.555 38.3332 54.8191C39.9504 55.2039 40.7486 54.8416 41.2818 53.4827C41.5372 52.8322 41.9203 52.2623 42.3274 51.6601C42.5094 51.3912 42.6978 51.1127 42.8766 50.8212L43.4242 49.9325L47.8782 63.9869L47.8798 63.9853ZM50.0446 29.3766C50.5586 30.9432 51.0487 32.3263 51.5452 33.6047C51.799 34.26 51.6825 34.7526 51.1573 35.2534C50.1419 36.2227 49.1011 37.2563 47.9772 38.4172C47.8431 38.5557 47.7313 38.7778 47.709 38.9453C47.5062 40.5377 47.3354 42.1171 47.1997 43.6387C47.147 44.2328 46.8725 44.5806 46.3121 44.7641C44.7125 45.2906 43.3715 45.7447 42.0305 46.2518C41.7815 46.3452 41.5117 46.5658 41.36 46.7993C40.8954 47.5141 40.4437 48.258 40.0062 48.9761C39.6758 49.5187 39.3357 50.079 38.9893 50.6264C38.8361 50.8695 38.6141 51.0289 38.4673 51.1352C38.4369 51.1561 38.4114 51.1755 38.3922 51.1916L38.2326 51.33L38.0203 51.3075C37.5397 51.2479 37.0768 51.1916 36.6282 51.1368C35.5937 51.0112 34.6167 50.8905 33.6461 50.7568C32.9947 50.6667 32.5765 50.7488 32.1518 51.0515C31.4685 51.5377 30.7549 51.9902 30.0637 52.4297C29.5879 52.7308 29.0962 53.0432 28.6237 53.3603C28.3683 53.5326 28.1256 53.618 27.8814 53.618C27.6371 53.618 27.3849 53.5294 27.1215 53.3523C26.0423 52.6294 24.7572 51.7809 23.4209 50.9774C23.1496 50.8148 22.7824 50.7198 22.5078 50.7456C21.1732 50.8631 19.7603 51.037 18.3076 51.264C17.5237 51.3864 16.9985 51.1304 16.6042 50.4348C15.8619 49.1242 15.1483 47.9569 14.4203 46.8685C14.2319 46.5883 13.8935 46.3178 13.5758 46.1939C12.155 45.6432 10.6942 45.165 9.43624 44.7577C8.86632 44.5741 8.59972 44.2392 8.54544 43.6371C8.39538 41.9465 8.23094 40.4346 8.04576 39.0177C8.01862 38.8052 7.88292 38.5363 7.71689 38.3624C6.63452 37.2322 5.62877 36.2323 4.64377 35.3049C4.07065 34.7655 3.94454 34.2342 4.22391 33.5306C4.81618 32.0348 5.32385 30.5246 5.70061 29.3766C5.77085 29.1608 5.77085 28.8598 5.70061 28.6456C5.18017 27.0549 4.69007 25.6734 4.20316 24.4175C3.94773 23.759 4.06267 23.2663 4.5879 22.7672C5.75808 21.6546 6.76383 20.6548 7.66261 19.7113C7.86057 19.502 8.01862 19.188 8.05374 18.9304C8.23733 17.5892 8.39538 16.1272 8.53746 14.4608C8.59333 13.7958 8.88069 13.4287 9.49691 13.2355C11.055 12.7445 12.4088 12.2743 13.6348 11.801C13.9254 11.6882 14.2399 11.4322 14.4171 11.165C15.2169 9.95258 15.9656 8.69511 16.7271 7.40543C16.9586 7.01418 17.2955 6.62776 18.0649 6.73886C19.4905 6.94334 20.9864 7.12206 22.6387 7.28629C22.8414 7.30561 23.1049 7.24764 23.2741 7.14299C24.4714 6.40718 25.7437 5.59087 27.163 4.64575C27.6595 4.31569 28.1001 4.31408 28.5918 4.64253C29.9567 5.55384 31.2291 6.37015 32.4807 7.13816C32.6531 7.24442 32.9149 7.304 33.1145 7.28468C34.77 7.12206 36.2674 6.94334 37.6882 6.73886C38.4545 6.62776 38.7929 7.01418 39.026 7.40543C39.9376 8.94628 40.6959 10.1812 41.4143 11.2954C41.5404 11.4902 41.7703 11.6786 41.9762 11.7559C43.247 12.2276 44.6263 12.7042 46.1924 13.2098C46.6873 13.3692 47.155 13.6332 47.2173 14.4656C47.3195 15.8149 47.4743 17.2575 47.7058 19.0061C47.7345 19.2202 47.8686 19.4891 48.0331 19.6598C48.9941 20.6564 50.035 21.6901 51.2163 22.8187C51.6937 23.2744 51.8038 23.7461 51.5755 24.3483C51.0232 25.8022 50.5107 27.2481 50.0494 28.6488C49.9791 28.863 49.9791 29.1624 50.0494 29.3798L50.0446 29.3766Z" fill="#FFBB1C"/>
<path d="M39.5125 17.3221C36.4011 14.1761 32.2663 12.4452 27.8698 12.4436C18.8244 12.4436 11.4457 19.858 11.4234 28.9711C11.4122 33.3875 13.1172 37.5496 16.2254 40.6941C19.3401 43.8434 23.4748 45.5791 27.8666 45.5807H27.8714C36.9183 45.5807 44.2954 38.1646 44.3146 29.0451C44.3242 24.6239 42.6192 20.4618 39.5125 17.3221ZM27.9033 42.1625C27.8714 42.1625 27.8411 42.1625 27.8091 42.1625C24.2986 42.1367 21.0115 40.7359 18.5546 38.2178C16.1089 35.7093 14.7791 32.3925 14.811 28.8777C14.8765 21.6806 20.7417 15.8618 27.9033 15.8618C27.9352 15.8618 27.9672 15.8618 27.9991 15.8618C31.4665 15.8876 34.7248 17.2835 37.1722 19.7952C39.6259 22.3118 40.9589 25.6318 40.9254 29.1417C40.8567 36.3404 35.0234 42.1625 27.9033 42.1625Z" fill="#FFBB1C"/>
<path d="M27.8696 11.9608C18.5512 11.9608 10.9682 19.5813 10.9443 28.9713C10.9203 38.3774 18.5273 46.0623 27.8664 46.0639C37.1752 46.0655 44.7726 38.4289 44.7933 29.047C44.8141 19.6312 37.2167 11.9624 27.8696 11.9608ZM27.8696 45.5809H27.8648C23.4714 45.5809 19.3367 43.8436 16.2237 40.6943C13.1154 37.5514 11.4104 33.3878 11.4216 28.9713C11.4455 19.8566 18.8226 12.4422 27.868 12.4438C32.2646 12.4438 36.3993 14.1763 39.5107 17.3224C42.6174 20.462 44.3224 24.6257 44.3128 29.0454C44.2936 38.1649 36.9165 45.5809 27.8696 45.5809Z" fill="url(#paint2_linear_1609_19357)"/>
</g>
<defs>
<linearGradient id="paint0_linear_1609_19357" x1="27.7538" y1="2.13562" x2="27.7538" y2="70.8055" gradientUnits="userSpaceOnUse">
<stop stop-color="#FFE6AC"/>
<stop offset="1" stop-color="#FFCE5C"/>
</linearGradient>
<linearGradient id="paint1_linear_1609_19357" x1="28.0158" y1="21.6863" x2="28.0158" y2="36.9683" gradientUnits="userSpaceOnUse">
<stop stop-color="#F5ECD6"/>
<stop offset="1" stop-color="white"/>
</linearGradient>
<linearGradient id="paint2_linear_1609_19357" x1="27.8688" y1="11.9608" x2="27.8688" y2="46.0639" gradientUnits="userSpaceOnUse">
<stop stop-color="#FFE6AC"/>
<stop offset="1" stop-color="#FFCE5C"/>
</linearGradient>
<clipPath id="clip0_1609_19357">
<rect width="55.75" height="74.3329" fill="white" transform="translate(0 0.172607)"/>
</clipPath>
</defs>
</svg>
