<svg width="186" height="50" viewBox="0 0 186 50" fill="none" xmlns="http://www.w3.org/2000/svg">
<circle cx="24.9998" cy="25" r="5.83333" stroke="#B02CAB" stroke-width="5"/>
<circle cx="25.0002" cy="25" r="14.1667" stroke="#EC4F80" stroke-width="5"/>
<circle cx="25" cy="25" r="22.5" stroke="#F0C53B" stroke-width="5"/>
<path d="M62.5 30.09C61.912 30.09 61.384 30.006 60.916 29.838C60.448 29.67 60.052 29.436 59.728 29.136C59.404 28.824 59.152 28.458 58.972 28.038C58.804 27.618 58.72 27.162 58.72 26.67H60.16C60.16 27.354 60.358 27.888 60.754 28.272C61.15 28.644 61.732 28.83 62.5 28.83C63.268 28.83 63.85 28.656 64.246 28.308C64.642 27.96 64.84 27.534 64.84 27.03C64.84 26.562 64.69 26.202 64.39 25.95C64.09 25.686 63.718 25.47 63.274 25.302C62.83 25.122 62.344 24.96 61.816 24.816C61.3 24.66 60.82 24.462 60.376 24.222C59.932 23.97 59.56 23.646 59.26 23.25C58.96 22.842 58.81 22.302 58.81 21.63C58.81 21.246 58.9 20.874 59.08 20.514C59.26 20.142 59.512 19.812 59.836 19.524C60.172 19.236 60.562 19.008 61.006 18.84C61.462 18.66 61.96 18.57 62.5 18.57C62.992 18.57 63.448 18.66 63.868 18.84C64.3 19.02 64.672 19.266 64.984 19.578C65.308 19.878 65.56 20.238 65.74 20.658C65.92 21.078 66.01 21.522 66.01 21.99H64.57C64.57 21.354 64.372 20.838 63.976 20.442C63.58 20.034 63.088 19.83 62.5 19.83C62.164 19.83 61.858 19.884 61.582 19.992C61.306 20.088 61.066 20.22 60.862 20.388C60.67 20.556 60.52 20.748 60.412 20.964C60.304 21.18 60.25 21.402 60.25 21.63C60.25 22.098 60.4 22.464 60.7 22.728C61 22.98 61.372 23.196 61.816 23.376C62.26 23.544 62.74 23.706 63.256 23.862C63.784 24.006 64.27 24.204 64.714 24.456C65.158 24.696 65.53 25.02 65.83 25.428C66.13 25.824 66.28 26.358 66.28 27.03C66.28 27.438 66.19 27.828 66.01 28.2C65.842 28.56 65.596 28.884 65.272 29.172C64.948 29.448 64.552 29.67 64.084 29.838C63.616 30.006 63.088 30.09 62.5 30.09ZM71.7221 30.09C71.2061 30.09 70.7141 29.988 70.2461 29.784C69.7901 29.58 69.3881 29.298 69.0401 28.938C68.7041 28.566 68.4341 28.128 68.2301 27.624C68.0381 27.12 67.9421 26.562 67.9421 25.95C67.9421 25.338 68.0381 24.78 68.2301 24.276C68.4341 23.772 68.7041 23.34 69.0401 22.98C69.3881 22.608 69.7901 22.32 70.2461 22.116C70.7141 21.912 71.2061 21.81 71.7221 21.81C72.1661 21.81 72.5801 21.888 72.9641 22.044C73.3601 22.2 73.7081 22.416 74.0081 22.692C74.3201 22.956 74.5781 23.268 74.7821 23.628C74.9861 23.988 75.1361 24.372 75.2321 24.78H73.8821C73.8101 24.552 73.7081 24.336 73.5761 24.132C73.4441 23.928 73.2821 23.748 73.0901 23.592C72.9101 23.436 72.7001 23.31 72.4601 23.214C72.2321 23.118 71.9861 23.07 71.7221 23.07C71.4101 23.07 71.1041 23.142 70.8041 23.286C70.5161 23.418 70.2581 23.61 70.0301 23.862C69.8021 24.114 69.6221 24.42 69.4901 24.78C69.3581 25.128 69.2921 25.518 69.2921 25.95C69.2921 26.382 69.3581 26.778 69.4901 27.138C69.6221 27.486 69.8021 27.786 70.0301 28.038C70.2581 28.29 70.5161 28.488 70.8041 28.632C71.1041 28.764 71.4101 28.83 71.7221 28.83C71.9861 28.83 72.2321 28.782 72.4601 28.686C72.7001 28.59 72.9101 28.464 73.0901 28.308C73.2821 28.152 73.4441 27.972 73.5761 27.768C73.7081 27.564 73.8101 27.348 73.8821 27.12H75.2321C75.1361 27.528 74.9861 27.912 74.7821 28.272C74.5781 28.632 74.3201 28.95 74.0081 29.226C73.7081 29.49 73.3601 29.7 72.9641 29.856C72.5801 30.012 72.1661 30.09 71.7221 30.09ZM77.4272 18.66H78.7772V22.89C78.9452 22.686 79.1432 22.506 79.3712 22.35C79.5752 22.218 79.8212 22.098 80.1092 21.99C80.3972 21.87 80.7332 21.81 81.1172 21.81C81.5492 21.81 81.9512 21.9 82.3232 22.08C82.7072 22.248 83.0432 22.488 83.3312 22.8C83.6192 23.1 83.8472 23.466 84.0152 23.898C84.1832 24.33 84.2672 24.804 84.2672 25.32V30H82.9172V25.32C82.9172 24.984 82.8632 24.678 82.7552 24.402C82.6472 24.126 82.5032 23.892 82.3232 23.7C82.1432 23.496 81.9332 23.34 81.6932 23.232C81.4532 23.124 81.2012 23.07 80.9372 23.07C80.3012 23.07 79.7792 23.274 79.3712 23.682C78.9752 24.09 78.7772 24.636 78.7772 25.32V30H77.4272V18.66ZM90.153 30.09C89.637 30.09 89.145 29.988 88.677 29.784C88.221 29.58 87.819 29.298 87.471 28.938C87.135 28.566 86.865 28.128 86.661 27.624C86.469 27.12 86.373 26.562 86.373 25.95C86.373 25.338 86.469 24.78 86.661 24.276C86.865 23.772 87.135 23.34 87.471 22.98C87.819 22.608 88.221 22.32 88.677 22.116C89.145 21.912 89.637 21.81 90.153 21.81C90.669 21.81 91.155 21.912 91.611 22.116C92.079 22.32 92.481 22.608 92.817 22.98C93.165 23.34 93.435 23.772 93.627 24.276C93.831 24.78 93.933 25.338 93.933 25.95C93.933 26.562 93.831 27.12 93.627 27.624C93.435 28.128 93.165 28.566 92.817 28.938C92.481 29.298 92.079 29.58 91.611 29.784C91.155 29.988 90.669 30.09 90.153 30.09ZM90.153 28.83C90.465 28.83 90.765 28.764 91.053 28.632C91.353 28.488 91.611 28.29 91.827 28.038C92.055 27.786 92.235 27.486 92.367 27.138C92.511 26.778 92.583 26.382 92.583 25.95C92.583 25.518 92.511 25.128 92.367 24.78C92.235 24.42 92.055 24.114 91.827 23.862C91.611 23.61 91.353 23.418 91.053 23.286C90.765 23.142 90.465 23.07 90.153 23.07C89.841 23.07 89.535 23.142 89.235 23.286C88.947 23.418 88.689 23.61 88.461 23.862C88.233 24.114 88.053 24.42 87.921 24.78C87.789 25.128 87.723 25.518 87.723 25.95C87.723 26.382 87.789 26.778 87.921 27.138C88.053 27.486 88.233 27.786 88.461 28.038C88.689 28.29 88.947 28.488 89.235 28.632C89.535 28.764 89.841 28.83 90.153 28.83ZM99.3772 30.09C98.8612 30.09 98.3692 29.988 97.9012 29.784C97.4452 29.58 97.0432 29.298 96.6952 28.938C96.3592 28.566 96.0892 28.128 95.8852 27.624C95.6932 27.12 95.5972 26.562 95.5972 25.95C95.5972 25.338 95.6932 24.78 95.8852 24.276C96.0892 23.772 96.3592 23.34 96.6952 22.98C97.0432 22.608 97.4452 22.32 97.9012 22.116C98.3692 21.912 98.8612 21.81 99.3772 21.81C99.8932 21.81 100.379 21.912 100.835 22.116C101.303 22.32 101.705 22.608 102.041 22.98C102.389 23.34 102.659 23.772 102.851 24.276C103.055 24.78 103.157 25.338 103.157 25.95C103.157 26.562 103.055 27.12 102.851 27.624C102.659 28.128 102.389 28.566 102.041 28.938C101.705 29.298 101.303 29.58 100.835 29.784C100.379 29.988 99.8932 30.09 99.3772 30.09ZM99.3772 28.83C99.6892 28.83 99.9892 28.764 100.277 28.632C100.577 28.488 100.835 28.29 101.051 28.038C101.279 27.786 101.459 27.486 101.591 27.138C101.735 26.778 101.807 26.382 101.807 25.95C101.807 25.518 101.735 25.128 101.591 24.78C101.459 24.42 101.279 24.114 101.051 23.862C100.835 23.61 100.577 23.418 100.277 23.286C99.9892 23.142 99.6892 23.07 99.3772 23.07C99.0652 23.07 98.7592 23.142 98.4592 23.286C98.1712 23.418 97.9132 23.61 97.6852 23.862C97.4572 24.114 97.2772 24.42 97.1452 24.78C97.0132 25.128 96.9472 25.518 96.9472 25.95C96.9472 26.382 97.0132 26.778 97.1452 27.138C97.2772 27.486 97.4572 27.786 97.6852 28.038C97.9132 28.29 98.1712 28.488 98.4592 28.632C98.7592 28.764 99.0652 28.83 99.3772 28.83ZM105.451 18.66H106.801V30H105.451V18.66ZM117.136 30.09C116.62 30.09 116.128 29.988 115.66 29.784C115.204 29.58 114.802 29.298 114.454 28.938C114.118 28.566 113.848 28.128 113.644 27.624C113.452 27.12 113.356 26.562 113.356 25.95C113.356 25.338 113.452 24.78 113.644 24.276C113.848 23.772 114.118 23.34 114.454 22.98C114.802 22.608 115.204 22.32 115.66 22.116C116.128 21.912 116.62 21.81 117.136 21.81C117.652 21.81 118.138 21.912 118.594 22.116C119.062 22.32 119.464 22.608 119.8 22.98C120.148 23.34 120.418 23.772 120.61 24.276C120.814 24.78 120.916 25.338 120.916 25.95C120.916 26.562 120.814 27.12 120.61 27.624C120.418 28.128 120.148 28.566 119.8 28.938C119.464 29.298 119.062 29.58 118.594 29.784C118.138 29.988 117.652 30.09 117.136 30.09ZM117.136 28.83C117.448 28.83 117.748 28.764 118.036 28.632C118.336 28.488 118.594 28.29 118.81 28.038C119.038 27.786 119.218 27.486 119.35 27.138C119.494 26.778 119.566 26.382 119.566 25.95C119.566 25.518 119.494 25.128 119.35 24.78C119.218 24.42 119.038 24.114 118.81 23.862C118.594 23.61 118.336 23.418 118.036 23.286C117.748 23.142 117.448 23.07 117.136 23.07C116.824 23.07 116.518 23.142 116.218 23.286C115.93 23.418 115.672 23.61 115.444 23.862C115.216 24.114 115.036 24.42 114.904 24.78C114.772 25.128 114.706 25.518 114.706 25.95C114.706 26.382 114.772 26.778 114.904 27.138C115.036 27.486 115.216 27.786 115.444 28.038C115.672 28.29 115.93 28.488 116.218 28.632C116.518 28.764 116.824 28.83 117.136 28.83ZM123.39 23.16H122.4V21.9H123.39V21.27C123.39 20.862 123.45 20.496 123.57 20.172C123.702 19.836 123.876 19.554 124.092 19.326C124.308 19.086 124.554 18.9 124.83 18.768C125.118 18.636 125.418 18.57 125.73 18.57C125.862 18.57 125.976 18.582 126.072 18.606C126.18 18.618 126.27 18.636 126.342 18.66C126.414 18.696 126.48 18.726 126.54 18.75V19.92C126.504 19.908 126.462 19.896 126.414 19.884C126.378 19.872 126.33 19.86 126.27 19.848C126.21 19.836 126.15 19.83 126.09 19.83C125.682 19.83 125.352 19.956 125.1 20.208C124.86 20.46 124.74 20.814 124.74 21.27V21.9H126.54V23.16H124.74V30H123.39V23.16ZM133.014 18.66H140.214V19.92H134.454V23.52H139.764V24.78H134.454V28.74H140.394V30H133.014V18.66ZM142.865 21.9H143.855L144.215 22.8C144.383 22.62 144.581 22.458 144.809 22.314C145.013 22.182 145.259 22.068 145.547 21.972C145.835 21.864 146.171 21.81 146.555 21.81C146.987 21.81 147.389 21.9 147.761 22.08C148.145 22.248 148.481 22.488 148.769 22.8C149.057 23.1 149.285 23.466 149.453 23.898C149.621 24.33 149.705 24.804 149.705 25.32V30H148.355V25.32C148.355 24.984 148.301 24.678 148.193 24.402C148.085 24.126 147.941 23.892 147.761 23.7C147.581 23.496 147.371 23.34 147.131 23.232C146.891 23.124 146.639 23.07 146.375 23.07C145.739 23.07 145.217 23.274 144.809 23.682C144.413 24.09 144.215 24.636 144.215 25.32V30H142.865V21.9ZM155.593 33.06C155.125 33.06 154.705 32.994 154.333 32.862C153.961 32.742 153.637 32.568 153.361 32.34C153.085 32.124 152.851 31.866 152.659 31.566C152.479 31.278 152.347 30.966 152.263 30.63H153.613C153.745 30.942 153.961 31.212 154.261 31.44C154.561 31.68 155.005 31.8 155.593 31.8C156.277 31.8 156.823 31.602 157.231 31.206C157.639 30.81 157.843 30.318 157.843 29.73V28.65C157.687 28.854 157.501 29.034 157.285 29.19C157.093 29.322 156.847 29.448 156.547 29.568C156.259 29.676 155.911 29.73 155.503 29.73C154.987 29.73 154.501 29.634 154.045 29.442C153.601 29.25 153.211 28.98 152.875 28.632C152.551 28.284 152.293 27.87 152.101 27.39C151.909 26.898 151.813 26.358 151.813 25.77C151.813 25.182 151.909 24.648 152.101 24.168C152.293 23.676 152.551 23.256 152.875 22.908C153.211 22.56 153.601 22.29 154.045 22.098C154.501 21.906 154.987 21.81 155.503 21.81C155.911 21.81 156.259 21.864 156.547 21.972C156.847 22.068 157.093 22.182 157.285 22.314C157.501 22.458 157.687 22.62 157.843 22.8L158.203 21.9H159.193V29.73C159.193 30.198 159.103 30.636 158.923 31.044C158.755 31.452 158.515 31.806 158.203 32.106C157.891 32.406 157.513 32.64 157.069 32.808C156.625 32.976 156.133 33.06 155.593 33.06ZM155.593 28.47C155.929 28.47 156.241 28.404 156.529 28.272C156.829 28.14 157.087 27.96 157.303 27.732C157.531 27.492 157.705 27.21 157.825 26.886C157.957 26.55 158.023 26.178 158.023 25.77C158.023 25.362 157.957 24.996 157.825 24.672C157.705 24.336 157.531 24.054 157.303 23.826C157.087 23.586 156.829 23.4 156.529 23.268C156.241 23.136 155.929 23.07 155.593 23.07C155.257 23.07 154.939 23.136 154.639 23.268C154.351 23.4 154.093 23.586 153.865 23.826C153.649 24.054 153.475 24.336 153.343 24.672C153.223 24.996 153.163 25.362 153.163 25.77C153.163 26.178 153.223 26.55 153.343 26.886C153.475 27.21 153.649 27.492 153.865 27.732C154.093 27.96 154.351 28.14 154.639 28.272C154.939 28.404 155.257 28.47 155.593 28.47ZM162.019 18.66H163.369V30H162.019V18.66ZM166.196 21.9H167.546V30H166.196V21.9ZM166.862 20.46C166.622 20.46 166.418 20.382 166.25 20.226C166.094 20.058 166.016 19.854 166.016 19.614C166.016 19.362 166.094 19.158 166.25 19.002C166.418 18.834 166.622 18.75 166.862 18.75C167.114 18.75 167.318 18.834 167.474 19.002C167.642 19.158 167.726 19.362 167.726 19.614C167.726 19.854 167.642 20.058 167.474 20.226C167.318 20.382 167.114 20.46 166.862 20.46ZM172.717 30.09C171.817 30.09 171.109 29.85 170.593 29.37C170.077 28.89 169.795 28.29 169.747 27.57H171.097C171.145 27.93 171.301 28.23 171.565 28.47C171.829 28.71 172.213 28.83 172.717 28.83C173.173 28.83 173.527 28.716 173.779 28.488C174.031 28.248 174.157 27.972 174.157 27.66C174.157 27.36 174.049 27.138 173.833 26.994C173.629 26.838 173.371 26.718 173.059 26.634C172.747 26.538 172.405 26.454 172.033 26.382C171.673 26.298 171.337 26.178 171.025 26.022C170.713 25.866 170.449 25.644 170.233 25.356C170.029 25.068 169.927 24.666 169.927 24.15C169.927 23.838 169.993 23.544 170.125 23.268C170.257 22.98 170.437 22.728 170.665 22.512C170.905 22.296 171.187 22.128 171.511 22.008C171.847 21.876 172.219 21.81 172.627 21.81C173.491 21.81 174.157 22.038 174.625 22.494C175.105 22.938 175.369 23.52 175.417 24.24H174.067C174.019 23.88 173.881 23.598 173.653 23.394C173.425 23.178 173.083 23.07 172.627 23.07C172.219 23.07 171.889 23.184 171.637 23.412C171.397 23.628 171.277 23.874 171.277 24.15C171.277 24.45 171.379 24.678 171.583 24.834C171.799 24.978 172.063 25.098 172.375 25.194C172.687 25.278 173.023 25.362 173.383 25.446C173.755 25.518 174.097 25.632 174.409 25.788C174.721 25.944 174.979 26.172 175.183 26.472C175.399 26.76 175.507 27.156 175.507 27.66C175.507 27.996 175.441 28.314 175.309 28.614C175.177 28.902 174.991 29.16 174.751 29.388C174.511 29.604 174.217 29.778 173.869 29.91C173.533 30.03 173.149 30.09 172.717 30.09ZM177.879 18.66H179.229V22.89C179.397 22.686 179.595 22.506 179.823 22.35C180.027 22.218 180.273 22.098 180.561 21.99C180.849 21.87 181.185 21.81 181.569 21.81C182.001 21.81 182.403 21.9 182.775 22.08C183.159 22.248 183.495 22.488 183.783 22.8C184.071 23.1 184.299 23.466 184.467 23.898C184.635 24.33 184.719 24.804 184.719 25.32V30H183.369V25.32C183.369 24.984 183.315 24.678 183.207 24.402C183.099 24.126 182.955 23.892 182.775 23.7C182.595 23.496 182.385 23.34 182.145 23.232C181.905 23.124 181.653 23.07 181.389 23.07C180.753 23.07 180.231 23.274 179.823 23.682C179.427 24.09 179.229 24.636 179.229 25.32V30H177.879V18.66Z" fill="#020917"/>
</svg>
