<svg width="45" height="32" viewBox="0 0 45 32" fill="none" xmlns="http://www.w3.org/2000/svg">
<path d="M4.34428 5.88853C4.5471 5.37212 4.67743 4.80507 4.96741 4.34925C5.55515 3.42587 6.45187 3.02884 7.5022 3.0008C7.55916 2.999 7.61699 3.0008 7.67481 3.0008C17.2185 3.0008 26.7621 3.0008 36.3066 3.0008C37.6513 3.0008 38.7034 3.55339 39.2894 4.84938C39.4939 5.30068 39.6113 5.8406 39.613 6.34073C39.6337 12.7791 39.6337 19.2184 39.6225 25.6568C39.619 27.6283 38.2589 28.9949 36.3403 28.9958C28.3355 28.9985 20.3306 28.9967 12.3258 28.9967C10.7412 28.9967 9.15581 29.0057 7.57125 28.994C6.25164 28.984 5.25308 28.3835 4.6593 27.1309C4.50913 26.8135 4.44699 26.4508 4.34428 26.1089C4.34428 19.3694 4.34428 12.6299 4.34428 5.89034V5.88853ZM7.9156 5.1831C7.99414 5.27445 8.02953 5.31967 8.07009 5.36217C11.953 9.41024 15.8315 13.4637 19.7282 17.4973C20.0614 17.8419 20.4894 18.1394 20.9262 18.3095C22.2233 18.8159 23.3539 18.4424 24.3188 17.4358C28.1525 13.4384 31.9871 9.44189 35.8216 5.44447C35.8907 5.37303 35.9537 5.29525 36.052 5.1831H7.9156ZM27.1522 17.4865C26.6318 18.049 26.1735 18.5555 25.704 19.0484C24.759 20.0405 23.6232 20.612 22.2803 20.6862C20.6992 20.773 19.3588 20.1942 18.2446 19.0276C17.7751 18.5365 17.3151 18.0354 16.8154 17.5018C13.8655 20.6537 10.9553 23.7639 8.11324 26.8008H35.8656C33.0158 23.7539 30.1091 20.6473 27.1522 17.4856V17.4865ZM6.43546 6.70158V25.3167C9.40955 22.1414 12.3232 19.0312 15.1661 15.996C12.3111 12.9564 9.39833 9.8561 6.43546 6.70158ZM28.8507 15.9562C31.6997 18.9995 34.6099 22.1079 37.5365 25.2335V6.70972C34.5771 9.85972 31.6651 12.96 28.8507 15.9562Z" fill="#020917"/>
</svg>
