<svg width="17" height="20" viewBox="0 0 17 20" fill="none" xmlns="http://www.w3.org/2000/svg">
<path id="Vector" d="M7.65952 0.365929C5.99553 0.52043 4.42607 1.20384 3.18492 2.31432C1.94377 3.4248 1.09687 4.90341 0.77053 6.52987C0.464138 8.26029 0.802823 10.0422 1.72333 11.5427L2.24 12.3972C3.35351 14.2165 4.64982 15.919 6.1095 17.4789L7.78578 19.2906C7.94032 19.5397 8.21423 19.6913 8.50908 19.6913C8.80394 19.6913 9.07766 19.5397 9.23237 19.2906L10.9087 17.4904C12.3658 15.9206 13.6621 14.2108 14.778 12.3862L15.1912 11.7026H15.1914C15.9445 10.5406 16.3433 9.18751 16.3395 7.80598C16.2878 5.63839 15.315 3.59365 13.6616 2.17643C12.0081 0.75925 9.82804 0.101566 7.65929 0.365929H7.65952ZM8.54352 10.6201C7.8064 10.593 7.10978 10.2787 6.60486 9.74519C6.0999 9.21168 5.82734 8.50214 5.84638 7.77048C5.86522 7.03882 6.1743 6.34392 6.70618 5.83693C7.23821 5.32993 7.95018 5.05165 8.68775 5.06235C9.42526 5.07303 10.1288 5.37173 10.6456 5.89396C11.1625 6.41619 11.451 7.11948 11.4485 7.85153C11.4333 8.60097 11.1189 9.31373 10.574 9.83294C10.0292 10.3523 9.2988 10.6354 8.54357 10.6201H8.54352Z" fill="#0CC0AD"/>
</svg>
