<svg width="30" height="25" viewBox="0 0 30 25" fill="none" xmlns="http://www.w3.org/2000/svg">
<path fill-rule="evenodd" clip-rule="evenodd" d="M3.75 3.5H26.25C26.9404 3.5 27.5 3.94772 27.5 4.5C27.5 5.05228 26.9404 5.5 26.25 5.5H3.75C3.05964 5.5 2.5 5.05228 2.5 4.5C2.5 3.94772 3.05964 3.5 3.75 3.5Z" fill="#F7F9FD"/>
<path fill-rule="evenodd" clip-rule="evenodd" d="M3.75 11.5H26.25C26.9404 11.5 27.5 11.9477 27.5 12.5C27.5 13.0523 26.9404 13.5 26.25 13.5H3.75C3.05964 13.5 2.5 13.0523 2.5 12.5C2.5 11.9477 3.05964 11.5 3.75 11.5Z" fill="#F7F9FD"/>
<path fill-rule="evenodd" clip-rule="evenodd" d="M3.75 19.5H26.25C26.9404 19.5 27.5 19.9477 27.5 20.5C27.5 21.0523 26.9404 21.5 26.25 21.5H3.75C3.05964 21.5 2.5 21.0523 2.5 20.5C2.5 19.9477 3.05964 19.5 3.75 19.5Z" fill="#F7F9FD"/>
</svg>
