<svg width="33" height="36" viewBox="0 0 33 36" fill="none" xmlns="http://www.w3.org/2000/svg">
<path d="M21.7605 28.711C21.1346 31.422 18.8854 32.9191 16.6738 32.9969C14.498 33.0738 11.9596 31.7187 11.2227 28.711C11.1099 28.711 10.989 28.711 10.8682 28.711C9.01383 28.711 7.15949 28.7056 5.30605 28.7137C4.37217 28.7172 3.64512 28.3579 3.23146 27.5124C2.82048 26.6713 2.97717 25.8883 3.54036 25.1375C4.19578 24.2642 4.80106 23.3525 5.41887 22.4515C5.67853 22.0734 5.77613 21.6444 5.77613 21.1849C5.77255 18.6983 5.72062 16.2108 5.78598 13.7259C5.90686 9.17988 8.03786 5.85215 12.1736 3.94918C18.2452 1.15507 25.487 4.8019 26.9358 11.3251C27.1175 12.1447 27.1963 13.001 27.208 13.843C27.2438 16.2733 27.225 18.7045 27.2169 21.1349C27.2151 21.6792 27.3611 22.1619 27.6763 22.6052C28.3164 23.5044 28.9495 24.409 29.5798 25.3144C30.0678 26.0161 30.1359 26.7687 29.7571 27.5285C29.3766 28.2909 28.7256 28.6985 27.8732 28.7056C25.9634 28.7226 24.0535 28.711 22.1437 28.7119C22.0219 28.7119 21.9002 28.7119 21.7605 28.7119V28.711ZM27.8213 26.5586C27.1722 25.6237 26.5633 24.7317 25.9374 23.8521C25.3492 23.0244 25.0689 22.1127 25.0734 21.0964C25.085 18.6992 25.0796 16.3028 25.0743 13.9056C25.0743 13.5382 25.0555 13.1699 25.0188 12.8044C24.4923 7.5835 19.2919 4.05466 14.2169 5.46959C10.502 6.50554 7.94564 9.82255 7.92236 13.6687C7.90714 16.1544 7.9134 18.6411 7.92236 21.1268C7.92594 22.1181 7.65106 23.0128 7.0798 23.8226C6.50766 24.6333 5.94536 25.4503 5.37858 26.2655C5.31859 26.3522 5.26397 26.4442 5.19055 26.5586H27.8213ZM13.5149 28.7244C13.8292 29.9713 15.2672 30.9268 16.6935 30.8464C17.9632 30.7748 19.3286 29.7282 19.462 28.7244H13.5149Z" fill="#020917"/>
<circle cx="25.5" cy="6.5" r="6.5" fill="#D30018"/>
</svg>
