<svg width="16" height="16" viewBox="0 0 16 16" fill="none" xmlns="http://www.w3.org/2000/svg">
<path fill-rule="evenodd" clip-rule="evenodd" d="M14.7441 13.5085L11.8155 10.5799C12.5596 9.58057 13 8.34171 13 7C13 3.68629 10.3137 1 7 1C3.68629 1 1 3.68629 1 7C1 10.3137 3.68629 13 7 13C8.34171 13 9.58057 12.5596 10.5799 11.8155L13.5085 14.7441C13.8497 15.0853 14.4029 15.0853 14.7441 14.7441C15.0853 14.4029 15.0853 13.8497 14.7441 13.5085ZM11.25 7C11.25 9.34721 9.34721 11.25 7 11.25C4.65279 11.25 2.75 9.34721 2.75 7C2.75 4.65279 4.65279 2.75 7 2.75C9.34721 2.75 11.25 4.65279 11.25 7Z" fill="#FEFEFE"/>
</svg>
