<svg width="14" height="14" viewBox="0 0 14 14" fill="none" xmlns="http://www.w3.org/2000/svg">
<path id="Star 3" d="M6.52447 0.802391C6.67415 0.341736 7.32585 0.341737 7.47553 0.802392L8.68386 4.52124C8.75079 4.72725 8.94277 4.86673 9.15938 4.86673H13.0696C13.554 4.86673 13.7554 5.48654 13.3635 5.77124L10.2001 8.06961C10.0248 8.19694 9.95149 8.42262 10.0184 8.62863L11.2268 12.3475C11.3764 12.8081 10.8492 13.1912 10.4573 12.9065L7.29389 10.6081C7.11865 10.4808 6.88135 10.4808 6.70611 10.6081L3.54267 12.9065C3.15081 13.1912 2.62357 12.8081 2.77325 12.3475L3.98157 8.62863C4.04851 8.42262 3.97518 8.19694 3.79994 8.06961L0.636495 5.77124C0.244639 5.48654 0.446028 4.86673 0.93039 4.86673H4.84062C5.05723 4.86673 5.24921 4.72725 5.31614 4.52124L6.52447 0.802391Z" fill="#FFBB1C"/>
</svg>
