<svg width="24" height="24" viewBox="0 0 24 24" fill="none" xmlns="http://www.w3.org/2000/svg">
<path d="M11.7622 3.15881C11.8371 2.92848 12.1629 2.92849 12.2378 3.15881L13.7564 7.83258C13.9906 8.55362 14.6626 9.0418 15.4207 9.0418H20.335C20.5772 9.0418 20.6779 9.3517 20.4819 9.49405L16.5062 12.3826C15.8929 12.8282 15.6362 13.6181 15.8705 14.3392L17.3891 19.0129C17.4639 19.2432 17.2003 19.4348 17.0044 19.2924L13.0286 16.4039C12.4153 15.9583 11.5847 15.9583 10.9714 16.4039L6.99564 19.2924C6.79971 19.4348 6.53609 19.2432 6.61093 19.0129L8.12952 14.3392C8.3638 13.6181 8.10715 12.8282 7.4938 12.3826L3.51806 9.49405C3.32213 9.3517 3.42283 9.0418 3.66501 9.0418H8.57929C9.33743 9.0418 10.0094 8.55362 10.2436 7.83258L11.7622 3.15881Z" stroke="#151515" stroke-width="1.5"/>
</svg>
